name processed_emg_signals
nRows=98
nColumns=7
 
endheader
time	RGLTMED	RRF	RADDLONG	RST	RTA	RGM
1.455	0.0285494766552138	0.0260491103653005	0.0871380740036134	0.017938219808914	0.1951912047548984	0.0348305620891176
1.456	0.0285156553754719	0.0260541168882303	0.0872299590482887	0.0179062298161326	0.1976593565021613	0.035012898738558
1.457	0.0284761297241575	0.0260583739792381	0.0873207291523901	0.0178779649980996	0.2001179580972024	0.035182332009672
1.458	0.0284309344146798	0.0260618793490706	0.0874099650839713	0.0178534386848341	0.2025662792748722	0.0353390025368496
1.459	0.0283801107055755	0.0260646320471149	0.0874972361348167	0.0178326601007621	0.2050035939626018	0.0354830637854176
1.46	0.0283237062325342	0.0260666324758254	0.0875821009865633	0.0178156343800732	0.2074291796279848	0.0356146812988028
1.461	0.0282617748402986	0.0260678824022153	0.0876641086039892	0.0178023625837539	0.2098423166192128	0.0357340319563566
1.462	0.0281943764149453	0.0260683849665616	0.0877427991539488	0.0177928417180025	0.2122422875033164	0.0358413032430483
1.463	0.0281215767169599	0.0260681446884784	0.0878177049483601	0.0177870647536936	0.2146283764066955	0.0359366925321503
1.464	0.0280434472155209	0.0260671674705555	0.0878883514097065	0.0177850206466799	0.2169998683622314	0.0360204063818746
1.465	0.0279600649243306	0.0260654605997534	0.0879542580573633	0.0177866943587064	0.2193560486670103	0.0360926598468719
1.466	0.0278715122393222	0.0260630327467573	0.0880149395130478	0.0177920668787584	0.2216962022544516	0.0361536758053269
1.467	0.0277778767785363	0.0260598939635224	0.0880699065235036	0.0178011152446387	0.2240196130842883	0.0362036843023176
1.468	0.0276792512244957	0.0260560556791984	0.0881186669983595	0.0178138125645896	0.2263255635534183	0.0362429219099851
1.469	0.0275757331693719	0.0260515306945856	0.0881607270610225	0.0178301280387818	0.2286133339300728	0.036271631104984
1.47	0.0274674249632781	0.0260463331752685	0.0881955921102978	0.0178500269804916	0.2308822018131857	0.0362900596636502
1.471	0.0273544335659849	0.026040478643494	0.0882227678904163	0.0178734708368402	0.2331314416181427	0.0362984600752569
1.472	0.0272368704022965	0.0260339839688525	0.0882417615671089	0.0179004172090242	0.235360324089597	0.0362970889737123
1.473	0.0271148512212812	0.026026867357793	0.0882520828073664	0.0179308198719807	0.237568115841433	0.0362862065879671
1.474	0.0269884959594813	0.0260191483419362	0.0882532448605026	0.0179646287935192	0.239754078923652	0.0362660762114013
1.475	0.0268579286081401	0.0260108477650907	0.0882447656381012	0.0180017901529684	0.241917470415679	0.036236963690361
1.476	0.0267232770844554	0.0260019877688249	0.088226168790383	0.0180422463594758	0.244057542045452	0.0361991369319956
1.477	0.0265846731067475	0.0259925917763754	0.0881969847765012	0.0180859360701242	0.2461735398336755	0.0361528654314456
1.478	0.0264422520734297	0.0259826844746346	0.0881567519262832	0.0181327942081091	0.2482647037627229	0.0360984198184083
1.479	0.0262961529455544	0.0259722917939615	0.0881050174909346	0.0181827519812478	0.2503302674699078	0.0360360714230373
1.48	0.0261465181327147	0.0259614408855161	0.0880413386802491	0.0182357369011535	0.252369457965043	0.0359660918611428
1.481	0.0259934933819946	0.0259501600958313	0.0879652836838363	0.0182916728034163	0.2543814953726073	0.0358887526385927
1.482	0.0258372276696144	0.0259384789383392	0.0878764326738926	0.0183504798691186	0.256365592699633	0.0358043247748059
1.483	0.0256778730949002	0.0259264280615871	0.0877743787868706	0.0184120746480936	0.2583209556317181	0.0357130784451361
1.484	0.0255155847761807	0.0259140392139532	0.0876587290812391	0.0184763700842288	0.2602467823611155	0.03561528264196
1.485	0.0253505207482021	0.0259013452046392	0.0875291054683245	0.018543275543197	0.2621422634521909	0.0355112048541877
1.486	0.0251828418607371	0.0258883798607467	0.0873851456131958	0.0186126968428836	0.2640065817505093	0.0354011107649179
1.487	0.025012711678053	0.0258751779802383	0.087226503802604	0.018684536286839	0.2658389123420638	0.0352852639669104
1.488	0.0248402963790127	0.0258617752805683	0.087052851777238	0.0187586927010239	0.2676384225689581	0.0351639256955158
1.489	0.0246657646576243	0.025848208342846	0.0868638795258073	0.0188350614741467	0.2694042721072395	0.03503735457867
1.49	0.0244892876239092	0.0258345145514389	0.0866592960387448	0.0189135346018448	0.2711356131118993	0.0349058064035871
1.491	0.0243110387049641	0.0258207320290544	0.0864388300196285	0.0189940007349869	0.2728315904332392	0.0347695338997111
1.492	0.0241311935461321	0.0258068995673555	0.0862022305526525	0.019076345232262	0.2744913419080599	0.0346287865375522
1.493	0.0239499299121487	0.0257930565531849	0.0859492677246994	0.0191604502172955	0.2761139987282663	0.0344838103429407
1.494	0.0237674275881548	0.0257792428905072	0.0856797332005631	0.0192461946404241	0.2776986858886421	0.0343348477261869
1.495	0.0235838682804597	0.0257654989181568	0.0853934407498569	0.0193334543452893	0.2792445227146312	0.0341821373255838
1.496	0.0233994355169325	0.0257518653235727	0.0850902267239521	0.0194221021403554	0.2807506234700168	0.0340259138645744
1.497	0.0232143145469268	0.0257383830528248	0.0847699504812126	0.0195120078754521	0.2822160980435364	0.0338664080219076
1.498	0.0230286922406361	0.0257250932172572	0.0844324947588955	0.0196030385234504	0.2836400527125635	0.0337038463139989
1.499	0.0228427569878132	0.0257120369971794	0.084077765990282	0.0196950582671991	0.2850215909810429	0.0335384509887125
1.5	0.022656698595781	0.0256992555430493	0.0837056945660126	0.0197879285918208	0.2863598144880788	0.0333704399297049
1.5010000000000001	0.0224707081867022	0.0256867898745866	0.0833162350389285	0.0198815083825192	0.2876538239826649	0.0332000265704553
1.502	0.0222849780940877	0.0256746807782987	0.0829093662721494	0.0199756540279621	0.2889027203594412	0.0330274198171086
1.5030000000000001	0.0220997017585168	0.0256629687038985	0.0824850915304882	0.0200702195293326	0.2901056057499543	0.0328528239793134
1.504	0.0219150736226213	0.0256516936600822	0.0820434385156546	0.0201650566150648	0.2912615846638207	0.0326764387082888
1.5050000000000001	0.0217312890253495	0.0256408951101622	0.0815844593459899	0.020260014861234	0.2923697651745185	0.0324984589415267
1.506	0.0215485440955761	0.0256306118679451	0.081108230481823	0.0203549418175685	0.293429260145113	0.0323190748536296
1.5070000000000001	0.0213670356451359	0.0256208819942233	0.0806148525978391	0.0204496831389241	0.2944391884899667	0.0321384718129693
1.508	0.0211869610613426	0.0256117426941811	0.0801044504042145	0.0205440827220959	0.2953986764693062	0.0319568303439796
1.5090000000000001	0.0210085181991024	0.0256032302159973	0.0795771724184682	0.0206379828478024	0.2963068590142353	0.0317743260950437
1.51	0.0208319052727622	0.0255953797509235	0.079033190690135	0.0207312243277211	0.2971628810804316	0.0315911298119658
1.5110000000000001	0.020657320747844	0.0255882253351068	0.0784727004804329	0.0208236466564925	0.2979658990291492	0.0314074073171336
1.512	0.0204849632328692	0.02558179975344	0.0778959198990572	0.020915088168657	0.2987150820343273	0.0312233194944212
1.5130000000000001	0.020315031371496	0.0255761344457332	0.0773030895001783	0.0210053862005335	0.2994096135145877	0.0310390222799001
1.514	0.0201477237352094	0.0255712594154969	0.0766944718396409	0.0210943772570344	0.3000486925889172	0.0308546666584023
1.5150000000000001	0.019983238716788	0.0255672031416634	0.0760703509951472	0.0211818971834968	0.300631535554709	0.0306703986659826
1.516	0.0198217744247166	0.0255639924935855	0.075431032051197	0.0212677813425595	0.3011573773866349	0.0304863593983202
1.5170000000000001	0.0196635285787101	0.0255616526495965	0.0747768405504403	0.0213518647962071	0.3016254732544498	0.0303026850251437
1.518	0.0195086984063925	0.0255602070194805	0.0741081219131492	0.0214339824930864	0.3020351000574122	0.0301195068107399
1.5190000000000001	0.0193574805411961	0.0255596771711122	0.0734252408264689	0.0215139694612265	0.3023855579726464	0.0299369511406058
1.52	0.0192100709214776	0.0255600827615269	0.0727285806050795	0.0215916610062573	0.3026761720143244	0.0297551395542405
1.5210000000000001	0.0190666646908088	0.0255614414726173	0.0720185425249918	0.0216668929152118	0.3029062936003695	0.0295741887840254
1.522	0.0189274560993935	0.0255637689516658	0.0712955451322294	0.0217395016659403	0.3030753021233586	0.0293942108000996
1.5230000000000001	0.0187926384065234	0.0255670787568808	0.0705600235282555	0.021809324642125	0.3031826065227232	0.0292153128610861
1.524	0.0186624037839732	0.0255713823081537	0.0698124286340251	0.0218762003538828	0.3032276468556533	0.0290375975705468
1.5250000000000001	0.0185369432201977	0.0255766888432426	0.0690532264345584	0.0219399686639156	0.3032098958643736	0.0288611629389943
1.526	0.0184164464251987	0.0255830053795872	0.0682828972059751	0.022000471019182	0.3031288605373535	0.0286861024513022
1.5270000000000001	0.0183011017358907	0.0255903366819857	0.0675019347269085	0.0220575506880605	0.3029840836618462	0.0285125051392889
1.528	0.0181910960217342	0.0255986852363473	0.0667108454762734	0.0221110530029549	0.3027751453650142	0.0283404556593022
1.5290000000000001	0.018086614590433	0.0256080512297047	0.0659101478192332	0.0221608256082776	0.3025016646408093	0.0281700343745779
1.53	0.0179878410934695	0.0256184325366501	0.0651003711830865	0.0222067187137148	0.3021633008597439	0.028001317442183
1.5310000000000001	0.0178949574312498	0.025629824712329	0.0642820552246227	0.022248585352628	0.301759755258493	0.0278343769042801
1.532	0.0178081436577017	0.025642220992077	0.0634557489903757	0.0222862816454608	0.3012907724061522	0.0276692807834585
1.5330000000000001	0.0177275778841687	0.0256556122977379	0.0626220100711188	0.0223196670679608	0.3007561416439274	0.0275060931817839
1.534	0.017653436182459	0.0256699872506393	0.061781403751863	0.0223486047240368	0.3001556984951078	0.0273448743831903
1.5350000000000001	0.0175858924869389	0.0256853321911038	0.0609345021585652	0.0223729616230354	0.2994893260423328	0.0271856809588141
1.536	0.0175251184955529	0.0257016312043231	0.0600818834027295	0.0223926089611964	0.298756956269147	0.0270285658748031
1.537	0.0174712835696395	0.0257188661523547	0.0592241307250506	0.0224074224069734	0.2979585713625997	0.0268735786021502
1.538	0.0174245546324221	0.0257370167119677	0.058361831639261	0.0224172823898891	0.2970942049732323	0.0267207652280782
1.539	0.017385096066008	0.0257560604180721	0.0574955770774376	0.0224220743925463	0.2961639434281651	0.0265701685685085
1.54	0.0173530696067147	0.025775972712393	0.0566259605379826	0.0224216892454225	0.2951679268923572	0.0264218282811647
1.541	0.0173286342385637	0.0257967269970606	0.0557535772375957	0.0224160234240591	0.2941063504723823	0.0262757809788418
1.542	0.0173119460847603	0.0258182946926888	0.054879023268537	0.0224049793483177	0.2929794652565431	0.0261320603423702
1.543	0.0173031582970041	0.0258406453005268	0.0540028947625105	0.0223884656832933	0.2917875792847366	0.0259906972327799
1.544	0.0173024209424581	0.0258637464681953	0.0531257870624802	0.0223663976415191	0.2905310584413598	0.0258517198021871
1.545	0.0173098808882166	0.0258875640586248	0.052248293903726	0.0223386972860096	0.2892103272646226	0.0257151536028901
1.546	0.0173256816831185	0.0259120622217718	0.0513710066054719	0.0223052938336326	0.2878258696658111	0.0255810216942663
1.547	0.0173499634367403	0.0259372034688102	0.0504945132743938	0.0222661239582656	0.286378229552313	0.0254493447471174
1.548	0.0173828626954615	0.0259629487484973	0.049619398021289	0.022221132093097	0.2848680113487959	0.0253201411452158
1.549	0.0174245123154639	0.0259892575254278	0.0487462401921977	0.022170270731439	0.2832958804119629	0.0251934270838447
1.55	0.0174750413325549	0.0260160878599303	0.0478756136151811	0.0221135007253576	0.281662563335544	0.0250692166651911
1.551	0.0175345748286654	0.026043396489348	0.0470080858639481	0.022050791581427	0.279968848143438	0.0249475219903934
1.552	0.0176032337949055	0.0260711389104723	0.0461442175394419	0.0219821217529046	0.2782155843701085	0.0248283532480946
